<mxfile host="65bd71144e" scale="5" border="0">
    <diagram id="FgpiK9OE_3OYkIBHCV0x" name="Page-1">
        <mxGraphModel dx="921" dy="546" grid="1" gridSize="10" guides="1" tooltips="1" connect="1" arrows="1" fold="1" page="1" pageScale="1" pageWidth="850" pageHeight="1100" background="#ffffff" math="0" shadow="0">
            <root>
                <mxCell id="0"/>
                <mxCell id="1" parent="0"/>
                <mxCell id="5" value="" style="endArrow=classic;html=1;fontFamily=Garamond;fontSize=36;strokeWidth=2;" parent="1" edge="1">
                    <mxGeometry width="50" height="50" relative="1" as="geometry">
                        <mxPoint x="63" y="520" as="sourcePoint"/>
                        <mxPoint x="833" y="520" as="targetPoint"/>
                    </mxGeometry>
                </mxCell>
                <mxCell id="6" value="" style="endArrow=classic;html=1;fontFamily=Garamond;fontSize=36;strokeWidth=2;startArrow=none;" parent="1" edge="1">
                    <mxGeometry width="50" height="50" relative="1" as="geometry">
                        <mxPoint x="63" y="510" as="sourcePoint"/>
                        <mxPoint x="63" y="110" as="targetPoint"/>
                    </mxGeometry>
                </mxCell>
                <mxCell id="670" value="Time" style="text;align=center;verticalAlign=middle;rounded=0;fontFamily=Garamond;html=1;whiteSpace=wrap;fontSize=36;rotation=0;strokeWidth=2;" parent="1" vertex="1">
                    <mxGeometry x="369.99999999999994" y="490" width="156.07" height="97.12" as="geometry"/>
                </mxCell>
                <mxCell id="679" value="" style="endArrow=none;html=1;fontFamily=Garamond;fontSize=36;strokeWidth=2;" parent="1" edge="1">
                    <mxGeometry width="50" height="50" relative="1" as="geometry">
                        <mxPoint x="63" y="520" as="sourcePoint"/>
                        <mxPoint x="61.95035144482881" y="493.1199999999999" as="targetPoint"/>
                    </mxGeometry>
                </mxCell>
            </root>
        </mxGraphModel>
    </diagram>
</mxfile>